<?xml version="1.0" standalone="no"?>
<!DOCTYPE svg PUBLIC "-//W3C//DTD SVG 1.1//EN" "http://www.w3.org/Graphics/SVG/1.1/DTD/svg11.dtd" >
<svg xmlns="http://www.w3.org/2000/svg">
<metadata>
This is a custom SVG font generated by IcoMoon.
<iconset grid="22"></iconset>
</metadata>
<defs>
<font id="iconic" horiz-adv-x="704" >
<font-face units-per-em="704" ascent="672" descent="-32" />
<missing-glyph horiz-adv-x="704" />
<glyph unicode="&#x41;" d="M0.00,320.00q0.00-145.75 103.125-248.875t 248.875-103.125t 248.875,103.125t 103.125,248.875t-103.125,248.875t-248.875,103.125t-248.875-103.125t-103.125-248.875zM 92.125,276.00l 127.875,0.00 l0.00,88.00 l-127.875,0.00 q 13.75,82.50 73.563,142.313t 142.313,73.563l0.00-127.875 l 88.00,0.00 l0.00,127.875 q 82.50-13.75 142.313-73.563t 73.563-142.313l-127.875,0.00 l0.00-88.00 l 127.875,0.00 q-13.75-82.50 -73.563-142.313t-142.313-73.563l0.00,127.875 l-88.00,0.00 l0.00-127.875 q-82.50,13.75 -142.313,73.563 t-73.563,142.313z" />
<glyph unicode="&#x4a;" d="M0.00,320.00l 352.00-352.00l0.00,220.00 l 352.00,0.00 l0.00,264.00 l-352.00,0.00 l0.00,220.00 z" />
<glyph unicode="&#x74;" d="M0.00,496.00l 88.00,0.00 l 44.00-528.00l 440.00,0.00 l 44.00,528.00l 88.00,0.00 l-44.00,88.00l-220.00,0.00 l0.00,66.00 q0.00,9.625 -6.188,15.813t-15.813,6.188l-132.00,0.00 q-9.625,0.00 -15.813-6.188t-6.188-15.813l0.00-66.00 l-220.00,0.00 zM 220.00,56.00l0.00,396.00 l 88.00,0.00 l0.00-396.00 l-88.00,0.00 zM 308.00,584.00l0.00,44.00 l 88.00,0.00 l0.00-44.00 l-88.00,0.00 zM 396.00,56.00l0.00,396.00 l 88.00,0.00 l0.00-396.00 l-88.00,0.00 z" />
<glyph unicode="&#x77;" d="M 148.50,454.75q 1.375-1.375 1.375-2.75l0.00-5.50 q 6.875-72.875 59.125-193.875t 94.875-200.063t 48.125-84.563q 6.875,12.375 19.938,35.063t 46.063,85.25t 58.438,119.625t 49.50,125.125t 28.188,113.438l0.00,5.50 q0.00,2.75 1.375,2.75l0.00,5.50 l0.00,8.25 q0.00,83.875 -59.813,143.688t-143.688,59.813t-143.688-59.813t-59.813-143.688l0.00-8.25 l0.00-5.50 zM 264.00,452.00q0.00,37.125 25.438,62.563t 62.563,25.438t 62.563-25.438t 25.438-62.563t-25.438-62.563t-62.563-25.438t-62.563,25.438t-25.438,62.563 z" />
<glyph unicode="&#x37;" d="M 12.375,203.125l 68.75-119.625q 31.625,17.875 67.375,17.875q 55.00,0.00 94.188-39.188t 39.188-94.188l 138.875,0.00 q0.00,35.75 17.875,67.375q 27.50,46.75 81.125,61.188t 101.75-13.063l 70.125,119.625q-31.625,17.875 -49.50,49.50q-27.50,48.125 -13.063,101.75t 62.563,81.125l-68.75,119.625q-31.625-17.875 -67.375-17.875q-56.375,0.00 -95.563,39.188t-39.188,95.563l-137.50,0.00 q0.00-35.75 -17.875-67.375q-27.50-48.125 -81.813-62.563t-102.438,13.063l-68.75-119.625 q 31.625-17.875 49.50-48.125q 27.50-48.125 13.063-101.75t-62.563-82.50zM 209.00,320.00q0.00,59.125 41.938,101.063t 101.063,41.938t 101.063-41.938t 41.938-101.063t-41.938-101.063t-101.063-41.938t-101.063,41.938t-41.938,101.063z" />
<glyph unicode="&#x46;" d="M 154.00,293.875l 108.625,0.00 l0.00-325.875 l 134.75,0.00 l0.00,325.875 l 136.125,0.00 l0.00,134.75 l-136.125,0.00 l0.00,68.75 q0.00,16.50 8.938,28.188t 18.563,11.688l 108.625,0.00 l0.00,134.75 l-108.625,0.00 q-67.375,0.00 -114.813-51.563t-47.438-124.438l0.00-67.375 l-108.625,0.00 l0.00-134.75 z" />
<glyph unicode="&#x50;" d="M0.00,12.00q0.00-17.875 13.063-30.938t 30.938-13.063l 616.00,0.00 q 17.875,0.00 30.938,13.063t 13.063,30.938l0.00,396.00 l-704.00,0.00 l0.00-396.00 zM0.00,452.00l 704.00,0.00 l0.00,88.00 q0.00,17.875 -13.063,30.938t-30.938,13.063l-88.00,0.00 l0.00,63.25 q0.00,9.625 -6.188,17.188t-15.813,7.563t-15.813-7.563t-6.188-17.188l0.00-63.25 l-352.00,0.00 l0.00,63.25 q0.00,9.625 -6.188,17.188t-15.813,7.563t-15.813-7.563t-6.188-17.188l0.00-63.25 l-88.00,0.00 q-17.875,0.00 -30.938-13.063t-13.063-30.938l0.00-88.00 zM 44.00,12.00l0.00,88.00 l 176.00,0.00 l0.00-88.00  l-176.00,0.00 zM 44.00,144.00l0.00,88.00 l 176.00,0.00 l0.00-88.00 l-176.00,0.00 zM 44.00,276.00l0.00,88.00 l 176.00,0.00 l0.00-88.00 l-176.00,0.00 zM 110.00,518.00q0.00,24.75 22.00,38.50l0.00-38.50 q0.00-9.625 6.188-15.813t 15.813-6.188t 15.813,6.188t 6.188,15.813l0.00,38.50 q 22.00-13.75 22.00-38.50q0.00-17.875 -13.063-30.938t-30.938-13.063t-30.938,13.063t-13.063,30.938zM 264.00,12.00l0.00,88.00 l 176.00,0.00 l0.00-88.00 l-176.00,0.00 zM 264.00,144.00l0.00,88.00 l 176.00,0.00 l0.00-88.00 l-176.00,0.00 zM 264.00,276.00l0.00,88.00 l 176.00,0.00 l0.00-88.00 l-176.00,0.00 z M 484.00,12.00l0.00,88.00 l 176.00,0.00 l0.00-88.00 l-176.00,0.00 zM 484.00,144.00l0.00,88.00 l 176.00,0.00 l0.00-88.00 l-176.00,0.00 zM 484.00,276.00l0.00,88.00 l 176.00,0.00 l0.00-88.00 l-176.00,0.00 zM 506.00,518.00q0.00,24.75 22.00,38.50l0.00-38.50 q0.00-9.625 6.188-15.813t 15.813-6.188t 15.813,6.188t 6.188,15.813l0.00,38.50 q 22.00-13.75 22.00-38.50q0.00-17.875 -13.063-30.938t-30.938-13.063t-30.938,13.063t-13.063,30.938z" />
<glyph unicode="&#x54;" d="M0.00,216.875q 50.875-68.75 126.50-105.188q 71.50-34.375 144.375-34.375l 8.25,0.00 q 77.00,2.063 148.50,28.188t 123.75,79.75t 68.75,122.375l 4.125,0.00 q 50.531,0.00 79.75,31.625q-14.094-2.75 -27.844-2.75q-27.156,0.00 -51.906,11.00q 59.125,4.125 77.00,45.375q-12.375-8.25 -37.813-11.688q-9.625-1.375 -18.906-1.375q-14.438,0.00 -27.156,3.438l-2.75,16.50q-15.125,52.25 -57.75,86.625q-38.156,30.594 -81.469,30.594q-5.156,0.00 -10.656-0.344l 16.50,5.50q 1.375,1.375 7.563,2.75t 12.375,3.438 t 13.063,4.813t 9.625,6.188t 1.375,7.563t-8.25,4.813t-15.813-2.063t-17.188-5.50t-17.188-6.188t-10.313-3.438q 34.375,12.375 37.125,28.875q-31.625-5.50 -55.00-26.125q 9.625,9.625 11.00,20.625q-60.50-38.50 -110.00-170.50q-33.00,31.625 -53.625,42.625q-75.625,41.25 -181.50,79.75l0.00-4.125 q0.00-21.313 13.063-43.313q 14.438-24.063 47.438-40.563q-2.406,0.344 -5.156,0.344q-13.406,0.00 -37.469-5.844q 9.625-53.625 78.375-70.125q-31.625-2.75 -48.125-19.25 q 21.656-43.313 72.188-43.313q 6.875,0.00 14.438,0.688q-29.219-13.406 -29.219-30.25q0.00-5.50 3.094-11.00q 10.656-19.938 37.813-19.938q 4.813,0.00 10.313,0.688q-55.00-56.375 -133.375-56.375t-127.875,49.50z" />
<glyph unicode="&#x6f;" d="M0.00,143.312q0.00-44.688 31.625-76.313l 67.375-67.375q 31.625-31.625 76.313-31.625t 76.313,31.625l 111.375,111.375q 28.875,28.875 31.625,69.438q 0.344,4.125 0.344,7.906q0.00,35.75 -22.344,64.281l-45.375-45.375q 5.50-8.25 5.50-19.25q0.00-19.25 -13.75-33.00l-111.375-111.375q-13.75-13.75 -32.313-13.75t-32.313,13.75l-67.375,67.375q-13.75,13.75 -13.75,32.313t 13.75,32.313l 111.375,111.375q 13.75,13.75 33.00,13.75q 11.00,0.00 19.25-5.50l 45.375,45.375 q-28.875,22.00 -64.625,22.00q-45.375,0.00 -77.00-31.625l-111.375-111.375q-31.625-31.625 -31.625-76.313zM 211.063,210.687l0.00-1.719 q0.00-12.031 8.938-20.969t 20.969-8.938l 1.719,0.00 q 13.063,0.688 22.688,10.313l 217.25,217.25q 9.625,9.625 10.313,22.688l0.00,1.719 q0.00,12.031 -8.938,20.969t-20.969,8.938l-1.719,0.00 q-13.063-0.688 -22.688-10.313l-217.25-217.25q-9.625-9.625 -10.313-22.688zM 309.375,459.562q-0.344-4.125 -0.344-7.906q0.00-35.75 22.344-64.281l 45.375,45.375q-5.50,8.25 -5.50,19.25 q0.00,19.25 13.75,33.00l 111.375,111.375q 13.75,13.75 32.313,13.75t 32.313-13.75l 67.375-67.375q 13.75-13.75 13.75-32.313t-13.75-32.313l-111.375-111.375q-13.75-13.75 -33.00-13.75q-11.00,0.00 -19.25,5.50l-45.375-45.375q 28.875-22.00 64.625-22.00q 45.375,0.00 77.00,31.625l 111.375,111.375q 31.625,31.625 31.625,76.313t-31.625,76.313l-67.375,67.375q-31.625,31.625 -76.313,31.625t-76.313-31.625l-111.375-111.375q-28.875-28.875 -31.625-69.438z" />
<glyph unicode="&#x71;" d="M0.00,12.00l 220.00,88.00l 220.00-132.00l 264.00,132.00l0.00,572.00 l-264.00-132.00l-220.00,132.00l-220.00-88.00l0.00-572.00 zM 44.00,76.625l0.00,477.125 l 165.00,66.00l0.00-477.125 zM 231.00,145.375l0.00,468.875 l 198.00-119.625l0.00-468.875 zM 451.00,23.00l0.00,473.00 l 209.00,104.50l0.00-473.00 z" />
<glyph unicode="&#x39;" d="M 660.00,408.00l-264.00,0.00 l0.00-44.00 l 176.00,0.00 l 0.344,0.00 l 1.031,0.00 q 23.375-0.688 29.563-6.875l 94.188-64.625q 6.875-6.875 6.875-16.50t-6.875-16.50l-94.188-64.625q-6.875-6.875 -30.938-6.875l-176.00,0.00 l0.00-176.00 q0.00-17.875 -12.719-30.938t-31.281-13.063t-31.281,13.063t-12.719,30.938l0.00,176.00 l-264.00,0.00 q-17.875,0.00 -30.938,13.063t-13.063,30.938l0.00,88.00 q0.00,17.875 13.063,30.938t 30.938,13.063l 264.00,0.00 l0.00,44.00 l-176.00,0.00 q-24.063,0.00 -30.938,6.875l-94.188,64.625q-6.875,6.875 -6.875,16.50
t 6.875,16.50l 94.188,64.625q 6.188,6.875 29.563,6.875l 1.031,0.00 l 0.344,0.00 l 176.00,0.00 l0.00,44.00 q0.00,17.875 12.719,30.938t 31.281,13.063t 31.281-13.063t 12.719-30.938l0.00-44.00 l 264.00,0.00 q 17.875,0.00 30.938-12.719t 13.063-31.281l0.00-88.00 q0.00-18.563 -13.063-31.281t-30.938-12.719z" />
<glyph unicode="&#x4c;" d="M0.00,296.625q 46.75-44.00 136.813-140.25t 131.313-144.375q 97.625,162.25 200.063,296.313t 235.813,288.063l-27.50,31.625q-103.125-77.00 -215.875-178.75t-173.25-165.00l-61.875-63.25l-159.50,143.00z" />
<glyph unicode="&#x68;" d="M0.00,276.00l 88.00,0.00 l 264.00,264.00l 264.00-264.00l 88.00,0.00 l-352.00,352.00zM 132.00,12.00l 176.00,0.00 l0.00,176.00 l 88.00,0.00 l0.00-176.00 l 176.00,0.00 l0.00,220.00 l-220.00,220.00l-220.00-220.00l0.00-220.00 z" />
<glyph unicode="&#x5a;" d="M0.00-32.00l 264.00,88.00l-56.375,56.375l 110.00,110.00l-63.25,63.25l-110.00-110.00l-56.375,56.375zM0.00,672.00l 88.00-264.00l 56.375,56.375l 110.00-110.00l 63.25,63.25l-110.00,110.00l 56.375,56.375zM 386.375,222.375l 110.00-110.00l-56.375-56.375l 264.00-88.00l-88.00,264.00l-56.375-56.375l-110.00,110.00zM 386.375,417.625l 63.25-63.25l 110.00,110.00l 56.375-56.375l 88.00,264.00l-264.00-88.00l 56.375-56.375z " />
<glyph unicode="&#x30;" d="M0.00,276.00q0.00-127.875 90.063-217.938t 217.938-90.063t 217.938,90.063t 90.063,217.938l-308.00,0.00 l0.00,308.00 q-127.875,0.00 -217.938-90.063t-90.063-217.938zM 396.00,364.00l 308.00,0.00 q0.00,127.875 -90.063,217.938t-217.938,90.063l0.00-308.00 z" />
<glyph unicode="&#x79;" d="M 659.516,51.845c-92.602,0.00-167.683,75.058-167.683,167.683c0.00,67.935, 40.497,126.306, 98.582,152.644
	l-22.293,50.193l 3.627-8.772l-152.666-204.926l0.00-41.09 l 22.359,0.00 l0.00-22.381 l-22.359,0.00 l-22.359,0.00 l-22.381,0.00 l0.00,22.381 l 22.381,0.00 l0.00,22.381 l-63.251,5.936
	c-11.52-81.368-81.258-144.026-165.814-144.026C 75.058,51.845,0.00,126.902,0.00,219.526c0.00,92.602, 75.058,167.661, 167.683,167.661
	c 24.206,0.00, 47.158-5.232, 67.935-14.444l 41.904,105.266l-19.018,53.116c-8.354,0.00-16.137,0.00-22.359,0.00c-20.974,0.00-15.368,22.359-15.368,22.359
	s 1.385,19.568, 16.775,19.568s 15.368-13.982, 40.519-13.982c 24.073,0.00, 58.68-6.97, 58.68-6.97s 15.368-20.952-13.96-20.952c-13.28,0.00-27.899,0.00-41.927,0.00
	l 15.895-57.096l 242.982,0.00 l-19.084,43.377l-14.84,0.00 L 505.817,539.765 l 89.415,0.00 l0.00-22.359 l-50.523,0.00 l 65.45-137.628c 15.609,4.815, 32.208,7.409, 49.379,7.409
	c 92.602,0.00, 167.683-75.058, 167.683-167.661C 827.199,126.902, 752.118,51.845, 659.516,51.845z M 167.683,364.85c-80.268,0.00-145.324-65.054-145.324-145.324
	s 65.054-145.302, 145.324-145.302c 72.97,0.00, 133.231,53.842, 143.564,123.975l-116.391,11.982c-1.847-10.487-10.575-18.60-21.59-18.60
	c-12.356,0.00-22.359,10.003-22.359,22.381c0.00,12.334, 10.003,22.381, 22.359,22.381c 2.639,0.00, 5.101-0.682, 7.452-1.539l 46.63,117.182
	C 209.125,360.166, 188.964,364.85, 167.683,364.85z M 201.209,229.31l 111.664-11.806c 0.022,0.682, 0.11,1.341, 0.11,2.023
	c0.00,51.666-27.02,96.911-67.649,122.701L 201.209,229.31z M 287.503,450.108l-33.924-86.798c 48.917-29.285, 81.763-82.643, 81.763-143.806
	c0.00-1.451-0.176-2.925-0.22-4.375l 37.947-4.001L 287.503,450.108z M 549.15,465.19l0.00-13.498 l-244.476,0.00 l 89.041-238.298l 169.001,221.283L 549.15,465.19z
	 M 659.516,364.85c-14.004,0.00-27.504-2.089-40.321-5.804l 52.194-119.248c 10.597-1.715, 18.864-10.553, 18.864-21.634c0.00-12.356-10.003-22.381-22.359-22.381
	s-22.381,10.003-22.381,22.381c0.00,6.002, 2.441,11.454, 6.354,15.499l-52.414,118.106c-50.281-22.865-85.282-73.386-85.282-132.22
	c0.00-80.246, 65.054-145.302, 145.302-145.302s 145.302,65.054, 145.302,145.302S 739.762,364.85, 659.516,364.85z" horiz-adv-x="825" />
<glyph unicode="&#x33;" d="M0.00,211.375q 2.75-49.50 37.813-87.313t 88.688-47.438q 60.50-12.375 107.25,20.625t 57.75,91.438t-20.625,106.563t-92.125,59.125q-4.125,1.375 -20.625,1.375q 1.375,24.75 56.375,92.125t 110.00,119.625l-46.75,0.00 q-71.50-35.75 -125.125-81.813t-82.50-87.313t-46.063-81.813t-21.313-66.00t-2.75-39.188zM 380.875,211.375q 2.75-49.50 37.125-87.313t 88.00-47.438q 60.50-12.375 107.25,20.625t 58.438,91.438t-19.938,106.563t-93.50,59.125 q-4.125,1.375 -19.25,1.375q0.00,24.75 55.00,92.125t 110.00,119.625l-46.75,0.00 q-70.125-35.75 -124.438-81.813t-82.50-87.313t-45.375-81.813t-22.00-66.00t-2.063-39.188z" />
<glyph unicode="&#x34;" d="M 96.25,507.00q 5.50-63.25 44.00-125.125q 46.75-72.875 113.438-101.75t 116.188,2.75l 37.125,23.375q 49.50,31.625 51.563,103.813t-44.688,146.438q-39.875,61.875 -94.875,92.813t-103.125,19.938q-23.375-4.125 -51.563-22.688t-43.313-37.813q-30.25-38.50 -24.75-101.75zM 178.063,542.062q-2.063,55.688 30.25,76.313t 82.50-4.813t 85.938-81.125t 37.813-112.063t-30.938-77.00t-82.50,4.813t-85.25,81.813t-37.813,112.063zM 382.25,251.25 l 144.375-276.375q 6.875-12.375 19.25-5.50l 56.375,34.375q 12.375,6.875 4.125,19.25l-176.00,257.125q-8.25,12.375 -20.625,4.125l-22.00-12.375q-12.375-8.25 -5.50-20.625z" />
<glyph unicode="&#x35;" d="M0.00,72.50l 46.75,0.00 q 70.125,35.75 124.438,81.813t 82.50,87.313t 45.375,81.813t 22.00,66.00t 2.063,39.188q-2.75,49.50 -37.125,87.313t-88.00,47.438q-60.50,12.375 -107.25-20.625t-58.438-91.438t 19.938-106.563t 93.50-59.125q 4.125-1.375 19.25-1.375q0.00-24.75 -55.00-92.125t-110.00-119.625zM 379.50,72.50l 46.75,0.00 q 71.50,35.75 125.125,81.813t 82.50,87.313t 46.063,81.813t 21.313,66.00t 2.75,39.188q-2.75,49.50 -37.813,87.313t-88.688,47.438 q-60.50,12.375 -107.25-20.625t-57.75-91.438t 20.625-106.563t 92.125-59.125q 4.125-1.375 20.625-1.375q-1.375-24.75 -56.375-92.125t-110.00-119.625z" />
<glyph unicode="&#x36;" d="M0.00,29.875l 61.875-61.875l 110.00,110.00l 57.75-56.375l 88.00,264.00l-264.00-88.00l 56.375-57.75zM0.00,610.125l 110.00-110.00l-56.375-57.75l 264.00-88.00l-88.00,264.00l-57.75-56.375l-110.00,110.00zM 386.375,285.625l 88.00-264.00l 57.75,56.375l 110.00-110.00l 61.875,61.875l-110.00,110.00l 56.375,57.75zM 386.375,354.375l 264.00,88.00l-56.375,57.75l 110.00,110.00l-61.875,61.875l-110.00-110.00l-57.75,56.375z" />
<glyph unicode="&#x43;" d="M0.00,320.00l 220.00,0.00 l0.00-352.00 l 264.00,0.00 l0.00,352.00 l 220.00,0.00 l-352.00,352.00z" />
<glyph unicode="&#x42;" d="M0.00,144.00l 176.00,176.00l 352.00-352.00l 176.00,176.00l-352.00,352.00l 176.00,176.00l-528.00,0.00 l0.00-528.00 z" />
<glyph unicode="&#x6a;" d="M0.00,12.00l0.00,88.00 l 704.00,0.00 l0.00-88.00 l-704.00,0.00 zM 88.00,144.00l0.00,132.00 l 88.00,0.00 l0.00-132.00 l-88.00,0.00 zM 220.00,144.00l0.00,308.00 l 88.00,0.00 l0.00-308.00 l-88.00,0.00 zM 352.00,144.00l0.00,176.00 l 88.00,0.00 l0.00-176.00 l-88.00,0.00 zM 484.00,144.00l0.00,440.00 l 88.00,0.00 l0.00-440.00 l-88.00,0.00 z" />
<glyph unicode="&#x69;" d="M 2.75,144.00l0.00-3.438 q0.00-15.813 11.00-27.50q 12.375-13.063 30.25-13.063l 96.25,0.00 l-52.25-132.00l 528.00,0.00 l-52.25,132.00l 96.25,0.00 q 17.875,0.00 30.25,13.063q 11.00,11.688 11.00,27.50l0.00,3.438 l-16.50,308.00q-1.375,17.875 -15.125,30.938t-31.625,13.063l-110.00,0.00 l0.00,176.00 l-352.00,0.00 l0.00-176.00 l-110.00,0.00 q-17.875,0.00 -31.625-13.063t-15.125-30.938zM 152.625,12.00l 53.625,132.00l 291.50,0.00 l 53.625-132.00l-398.75,0.00 zM 220.00,496.00l0.00,132.00 l 264.00,0.00 l0.00-132.00 l-264.00,0.00 zM 572.00,364.00l0.00,88.00 l 44.00,0.00  l0.00-88.00 l-44.00,0.00 z" />
<glyph unicode="&#x67;" d="M0.00,78.00q0.00-23.375 82.50-41.938t 206.25-22.688q 6.875-20.625 24.063-33.00t 39.188-12.375t 39.188,12.375t 24.063,33.00q 123.75,4.125 206.25,22.688t 82.50,41.938q0.00,9.625 -15.125,19.25q-52.25,39.875 -85.25,102.438t-46.75,121.688t-28.875,114.125t-46.75,94.875t-85.25,49.50l0.00,4.125 q0.00,17.875 -13.063,30.938t-30.938,13.063t-30.938-13.063t-13.063-30.938l0.00-4.125 q-53.625-9.625 -85.25-49.50t-46.75-94.875t-28.875-114.125t-46.75-121.688t-85.25-102.438 q-15.125-9.625 -15.125-19.25zM 1.375,87.625zM 27.50,78.00q 8.25,5.50 23.375,11.00q 27.50,9.625 72.875,16.50q 97.625,16.50 228.25,16.50t 228.25-16.50q 45.375-6.875 72.875-16.50q 15.125-5.50 23.375-11.00q-8.25-5.50 -23.375-11.00q-27.50-9.625 -72.875-16.50q-70.125-12.375 -162.25-15.125q0.00,26.125 -19.25,45.375t-46.75,19.25t-46.75-19.25t-19.25-45.375q-92.125,2.75 -162.25,15.125q-45.375,6.875 -72.875,16.50q-15.125,5.50 -23.375,11.00zM 330.00,582.625 l0.00,1.375 q0.00,9.625 6.188,15.813t 15.813,6.188t 15.813-6.188t 6.188-15.813l0.00-1.375 q-11.00,1.375 -22.00,1.375t-22.00-1.375zM 702.625,87.625z" />
<glyph unicode="&#x66;" d="M0.00,320.00q0.00-145.75 103.125-248.875t 248.875-103.125t 248.875,103.125t 103.125,248.875t-103.125,248.875t-248.875,103.125t-248.875-103.125t-103.125-248.875zM 44.00,320.00l 235.125-38.50l-103.125-137.50l 137.50,103.125l 38.50-235.125l 38.50,235.125l 137.50-103.125l-103.125,137.50l 235.125,38.50l-235.125,38.50l 103.125,137.50l-137.50-103.125l-38.50,235.125l-38.50-235.125l-137.50,103.125l 103.125-137.50l-235.125-38.50 q0.00,127.875 90.063,217.938t 217.938,90.063t 217.938-90.063t 90.063-217.938t-90.063-217.938t-217.938-90.063t-217.938,90.063t-90.063,217.938z" />
<glyph unicode="&#x65;" d="M0.00-32.00l 176.00,44.00l 440.00,440.00l-132.00,132.00l-440.00-440.00zM 132.00,144.00l 352.00,352.00l 44.00-44.00l-352.00-352.00zM 528.00,628.00l 132.00-132.00l 11.00,11.00q 33.00,33.00 33.00,66.00t-33.00,66.00t-66.00,33.00l-66.00-33.00z" />
<glyph unicode="&#x64;" d="M 44.00-32.00l 616.00,0.00 l0.00,528.00 l-176.00,176.00l-440.00,0.00 l0.00-704.00 zM 88.00,12.00l0.00,616.00 l 396.00,0.00 l0.00-132.00 l 132.00,0.00 l0.00-484.00 l-528.00,0.00 z" />
<glyph unicode="&#x63;" d="M0.00,100.00q0.00-37.125 64.625-62.563t 155.375-25.438q 48.125,0.00 90.75,8.25q 66.00-52.25 149.875-52.25q 101.75,0.00 172.563,70.813t 70.813,171.875t-70.813,171.875t-172.563,70.813q-23.375,0.00 -46.75-4.125l-2.75,2.75q 28.875,20.625 28.875,44.00l0.00,44.00 q0.00,37.125 -64.625,62.563t-155.375,25.438t-155.375-25.438t-64.625-62.563l0.00-44.00 q0.00-23.375 28.875-44.00q-28.875-20.625 -28.875-44.00l0.00-44.00 q0.00-23.375 28.875-44.00 q-28.875-20.625 -28.875-44.00l0.00-44.00 q0.00-23.375 28.875-44.00q-28.875-20.625 -28.875-44.00l0.00-44.00 zM 22.00,144.00q0.00,15.125 28.875,31.625q 66.00-31.625 169.125-31.625l 6.875,0.00 q 11.00-34.375 30.25-64.625q-19.25-1.375 -37.125-1.375q-86.625,0.00 -147.125,24.75q-50.875,19.25 -50.875,41.25zM 22.00,276.00q0.00,15.125 28.875,31.625q 66.00-31.625 169.125-31.625l 6.875,0.00 q-8.25-31.625 -8.25-64.625l0.00-1.375 q-56.375,0.00 -104.50,11.00q-22.00,5.50 -41.25,13.75 q-50.875,19.25 -50.875,41.25zM 22.00,408.00q0.00,15.125 28.875,31.625q 66.00-31.625 169.125-31.625q 67.375,0.00 122.375,15.125q-52.25-28.875 -85.25-79.75q-17.875-1.375 -37.125-1.375q-57.75,0.00 -105.875,11.00q-22.00,5.50 -41.25,13.75q-50.875,19.25 -50.875,41.25zM 22.00,540.00q0.00,22.00 50.875,41.25q 60.50,24.75 147.125,24.75t 147.125-24.75q 50.875-19.25 50.875-41.25t-50.875-41.25q-19.25-8.25 -41.25-13.75q-48.125-11.00 -105.875-11.00 t-105.875,11.00q-22.00,5.50 -41.25,13.75q-50.875,19.25 -50.875,41.25zM 262.625,211.375q0.00,82.50 57.75,140.25t 140.25,57.75t 140.938-57.75t 58.438-140.25t-58.438-140.938t-140.938-58.438t-140.25,58.438t-57.75,140.938zM 352.00,100.00l 88.00,0.00 l0.00-44.00 l 44.00,0.00 l0.00,44.00 l 88.00,0.00 l0.00,132.00 l-88.00,0.00 l0.00,44.00 l 88.00,0.00 l0.00,44.00 l-88.00,0.00 l0.00,44.00 l-44.00,0.00 l0.00-44.00 l-88.00,0.00 l0.00-132.00 l 88.00,0.00 l0.00-44.00 l-88.00,0.00 l0.00-44.00 zM 396.00,232.00l0.00,44.00 l 44.00,0.00 l0.00-44.00  l-44.00,0.00 zM 484.00,144.00l0.00,44.00 l 44.00,0.00 l0.00-44.00 l-44.00,0.00 z" />
<glyph unicode="&#x62;" d="M 44.00,56.00q0.00-35.75 26.125-61.875t 61.875-26.125l 528.00,0.00 l0.00,616.00 l-44.00,0.00 l0.00-572.00 l-462.00,0.00 q-27.50,0.00 -46.75,19.25t-19.25,46.75t 19.25,46.75t 46.75,19.25l 418.00,0.00 l0.00,528.00 l-440.00,0.00 q-35.75,0.00 -61.875-26.125t-26.125-61.875l0.00-528.00 zM 176.00,56.00l0.00,44.00 l 396.00,0.00 l0.00-44.00 l-396.00,0.00 z" />
<glyph unicode="&#x61;" d="M0.00,12.00q0.00-17.875 13.063-30.938t 30.938-13.063l 572.00,0.00 l0.00,176.00 l 44.00,0.00 q 17.875,0.00 30.938,13.063t 13.063,30.938l0.00,88.00 l-88.00,0.00 l0.00,44.00 l 44.00,0.00 q 17.875,0.00 30.938,13.063t 13.063,30.938l0.00,88.00 l-88.00,0.00 l0.00,44.00 l 44.00,0.00 q 17.875,0.00 30.938,13.063t 13.063,30.938l0.00,88.00 l-88.00,0.00 l0.00,44.00 l-572.00,0.00 q-17.875,0.00 -30.938-13.063t-13.063-30.938l0.00-616.00 zM 132.00,12.00l0.00,616.00 l 44.00,0.00 l0.00-616.00 l-44.00,0.00 zM 287.375,188.00q0.00,37.125 8.25,63.938t 18.563,39.875t 28.188,19.938t 28.188,7.563t 26.125,0.688t 26.125-0.688 t 28.188-7.563t 28.188-19.938t 18.563-39.875t 8.25-63.938l-218.625,0.00 zM 334.125,408.00q0.00,26.125 17.875,44.00t 44.00,17.875t 44.00-17.875t 17.875-44.00t-17.875-44.00t-44.00-17.875t-44.00,17.875t-17.875,44.00z" />
<glyph unicode="&#x59;" d="M0.00-32.00l 704.00,0.00 l0.00,44.00 l-660.00,0.00 l0.00,660.00 l-44.00,0.00 l0.00-704.00 zM 107.25,144.00q0.00-28.875 19.938-48.813t 48.813-19.938t 48.813,19.938t 19.938,48.125t-20.625,48.813l 74.25,148.50q 5.50-1.375 9.625-1.375q 16.50,0.00 30.25,6.875l 83.875-83.875q-6.875-13.75 -6.875-30.25q0.00-28.875 19.938-48.813t 48.813-19.938t 48.813,19.938t 19.938,48.813q0.00,30.25 -23.375,50.875l 81.125,188.375l 5.50,0.00 q 28.875,0.00 48.813,19.938t 19.938,48.813t-19.938,48.813t-48.813,19.938t-48.813-19.938 t-19.938-48.813q0.00-30.25 23.375-50.875l-81.125-188.375l-5.50,0.00 q-16.50,0.00 -30.25-6.875l-83.875,83.875q 6.875,13.75 6.875,30.25q0.00,28.875 -19.938,48.813t-48.813,19.938t-48.813-19.938t-19.938-48.125t 20.625-48.813l-74.25-148.50q-5.50,1.375 -9.625,1.375q-28.875,0.00 -48.813-19.938t-19.938-48.813z" />
<glyph unicode="&#x57;" d="M0.00,12.00l 704.00,0.00 q0.00,71.50 -67.375,127.875t-173.25,78.375q-50.875-39.875 -111.375-39.875t-111.375,39.875q-105.875-22.00 -173.25-78.375t-67.375-127.875zM 207.625,430.00q0.00,82.50 41.938,140.25t 102.438,57.75t 102.438-57.75t 41.938-140.25t-41.938-140.25t-102.438-57.75t-102.438,57.75t-41.938,140.25z" />
<glyph unicode="&#x53;" d="M 66.00,292.50q0.00-68.75 20.625-128.563t 52.25-106.563q 19.25-27.50 33.00-44.00t 35.75-31.625q 20.281-13.75 39.188-13.75l 3.438,0.00 q 20.625,1.375 53.625,15.125t 61.875,13.75q 27.50,0.00 60.50-14.438q 30.25-13.063 52.25-13.063l 4.125,0.00 q 22.00,0.00 43.313,14.438t 33.00,28.875t 30.938,43.313q 30.25,42.625 48.125,99.00q-5.50,2.75 -11.688,6.188t-22.00,15.813t-28.188,26.813t-22.00,39.875t-9.625,54.313l0.00,3.094 q0.00,81.813 75.625,130.281q-45.375,67.375 -129.25,70.125 q-4.469,0.344 -8.938,0.344q-29.219,0.00 -69.438-14.781q-46.75-17.188 -56.375-17.188q-11.00,0.00 -50.875,15.125t-64.625,15.125q-45.375-1.375 -83.875-24.75t-61.875-63.25q-28.875-50.875 -28.875-119.625zM 350.625,509.75q 4.469-0.344 9.281-0.344q 24.063,0.00 47.781,12.031q 28.188,14.438 47.438,37.813q 38.156,45.031 37.813,96.594q0.00,7.906 -0.688,16.156q-26.125-1.375 -55.688-16.50t-47.438-37.125q-39.531-45.375 -39.531-93.844q0.00-7.219 1.031-14.781z" />
<glyph unicode="&#x52;" d="M0.00,276.00l 176.00,0.00 l0.00-88.00 l 176.00,132.00l-176.00,132.00l0.00-88.00 l-176.00,0.00 l0.00-88.00 zM 352.00,12.00l 352.00,0.00 l0.00,616.00 l-352.00,0.00 l0.00-308.00 l0.00-308.00 zM 396.00,56.00l 176.00,176.00l0.00,308.00 l-176.00,44.00l 264.00,0.00 l0.00-528.00 l-264.00,0.00 z" />
<glyph unicode="&#x51;" d="M 132.00-32.00l 220.00,220.00l 220.00-220.00l0.00,704.00 l-440.00,0.00 l0.00-704.00 z" />
<glyph unicode="&#x4f;" d="M0.00,408.00q0.00-13.75 13.75-13.75l 165.00,0.00 q 13.75,0.00 13.75,13.75l0.00,15.125 q0.00,39.875 57.75,49.50q 41.25,5.50 101.75,5.50t 101.75-5.50q 57.75-9.625 57.75-49.50l0.00-15.125 q0.00-13.75 13.75-13.75l 165.00,0.00 q 13.75,0.00 13.75,13.75l0.00,4.125 q0.00,15.125 -2.063,26.125t-8.25,27.50t-22.688,33.00t-42.625,30.25q-96.25,55.00 -276.375,55.00t-276.375-55.00q-26.125-13.75 -42.625-30.25t-22.688-33.00t-8.25-27.50t-2.063-26.125l0.00-4.125 zM 119.625,205.875 q-20.281-62.906 -20.281-99.344q0.00-47.438 34.031-50.531l 4.125,0.00 l 214.50,0.00 l 214.50,0.00 q 37.813,0.00 37.813,50.531q0.00,34.031 -17.188,91.094q-34.375,105.875 -74.25,156.75q-6.875,9.625 -17.188,17.188t-19.25,11.688t-22.688,7.563t-21.313,5.50t-23.375,2.75t-20.625,0.688l-19.938,0.00 l-16.50,0.00 l-16.50,0.00 l-19.938,0.00 t-20.625-0.688t-23.375-2.75t-21.313-5.50t-22.688-7.563t-19.25-11.688t-17.188-17.188q-37.125-44.00 -71.50-148.50zM 242.00,232.00q0.00,45.375 32.313,77.688t 77.688,32.313 t 77.688-32.313t 32.313-77.688t-32.313-77.688t-77.688-32.313t-77.688,32.313t-32.313,77.688z" />
<glyph unicode="&#x4e;" d="M0.00,463.00l 81.125-374.00q 2.75-13.75 14.438-23.375t 25.438-9.625l 462.00,0.00 q 13.75,0.00 25.438,9.625t 14.438,23.375l 81.125,374.00q 0.344,2.063 0.344,4.125q0.00,11.00 -6.531,19.25q-7.563,9.625 -21.313,9.625l-649.00,0.00 q-13.75,0.00 -21.313-9.625q-6.531-8.25 -6.531-19.25q0.00-2.063 0.344-4.125zM 88.00,518.00l 528.00,0.00 l0.00,33.00 q0.00,13.75 -9.625,23.375t-23.375,9.625l-297.00,0.00 l-22.00,44.00l-143.00,0.00 q-13.75,0.00 -23.375-9.625t-9.625-23.375l0.00-77.00 z" />
<glyph unicode="&#x4d;" d="M0.00,144.00q0.00-17.875 13.063-30.938t 30.938-13.063l 132.00,0.00 l0.00-88.00 q0.00-17.875 13.063-30.938t 30.938-13.063l 440.00,0.00 q 17.875,0.00 30.938,13.063t 13.063,30.938l0.00,484.00 q0.00,17.875 -13.063,30.938t-30.938,13.063l-132.00,0.00 l0.00,88.00 q0.00,17.875 -13.063,30.938t-30.938,13.063l-440.00,0.00 q-17.875,0.00 -30.938-13.063t-13.063-30.938l0.00-484.00 zM 66.00,166.00l0.00,440.00 l 396.00,0.00 l0.00-66.00 l-242.00,0.00 q-17.875,0.00 -30.938-13.063t-13.063-30.938l0.00-330.00 l-110.00,0.00 zM 242.00,34.00l0.00,440.00 l 396.00,0.00 l0.00-440.00  l-396.00,0.00 zM 308.00,100.00l0.00,44.00 l 176.00,0.00 l0.00-44.00 l-176.00,0.00 zM 308.00,188.00l0.00,44.00 l 264.00,0.00 l0.00-44.00 l-264.00,0.00 zM 308.00,276.00l0.00,44.00 l 264.00,0.00 l0.00-44.00 l-264.00,0.00 zM 308.00,364.00l0.00,44.00 l 264.00,0.00 l0.00-44.00 l-264.00,0.00 z" />
<glyph unicode="&#x4b;" d="M0.00-32.00l 528.00,0.00 l-176.00,176.00l 352.00,352.00l-176.00,176.00l-352.00-352.00l-176.00,176.00l0.00-528.00 z" />
<glyph unicode="&#x49;" d="M0.00,496.00l 352.00-352.00l-176.00-176.00l 528.00,0.00 l0.00,528.00 l-176.00-176.00l-352.00,352.00z" />
<glyph unicode="&#x47;" d="M 44.00,496.00l 352.00-352.00l-308.00,0.00 l 132.00-132.00l 440.00,0.00 l0.00,440.00 l-132.00,132.00l0.00-308.00 l-352.00,352.00z" />
<glyph unicode="&#x48;" d="M0.00,320.00l 352.00-352.00l 352.00,352.00l-220.00,0.00 l0.00,352.00 l-264.00,0.00 l0.00-352.00 l-220.00,0.00 z" />
<glyph unicode="&#x44;" d="M0.00,144.00l 176.00-176.00l 352.00,352.00l 176.00-176.00l0.00,528.00 l-528.00,0.00 l 176.00-176.00z" />
<glyph unicode="&#x45;" d="M0.00,188.00l 352.00,0.00 l0.00-220.00 l 352.00,352.00l-352.00,352.00l0.00-220.00 l-352.00,0.00 l0.00-264.00 z" />
<glyph unicode="&#x6b;" d="M 44.00,12.00q0.00-17.875 13.063-30.938t 30.938-13.063l 528.00,0.00 q 17.875,0.00 30.938,13.063t 13.063,30.938l0.00,352.00 q0.00,17.875 -13.063,30.938t-30.938,13.063l-44.00,0.00 l0.00,220.00 q0.00,17.875 -13.063,30.938t-30.938,13.063l-352.00,0.00 q-17.875,0.00 -30.938-13.063t-13.063-30.938l0.00-220.00 l-44.00,0.00 q-17.875,0.00 -30.938-13.063t-13.063-30.938l0.00-352.00 zM 220.00,408.00l0.00,176.00 l 264.00,0.00 l0.00-176.00 l-264.00,0.00 zM 290.125,232.00q0.00,26.125 17.875,44.00t 44.00,17.875t 44.00-17.875t 17.875-44.00 q0.00-34.375 -27.50-52.25l 9.625-123.75l-88.00,0.00 l 9.625,123.75q-27.50,17.875 -27.50,52.25z" />
<glyph unicode="&#x6e;" d="M 44.00,56.00l 88.00,0.00 l0.00-44.00 q0.00-17.875 13.063-30.938t 30.938-13.063t 30.938,13.063t 13.063,30.938l0.00,44.00 l 264.00,0.00 l0.00-44.00 q0.00-17.875 13.063-30.938t 30.938-13.063t 30.938,13.063t 13.063,30.938l0.00,44.00 l 88.00,0.00 l0.00,264.00 q-22.00,264.00 -44.00,308.00t-264.00,44.00t-264.00-44.00q-9.625-19.25 -20.625-96.25t-17.875-144.375l-5.50-67.375l0.00-264.00 zM 112.75,232.00q0.00,26.125 18.563,44.688t 44.688,18.563t 44.688-18.563t 18.563-44.688t-18.563-44.688t-44.688-18.563 t-44.688,18.563t-18.563,44.688zM 140.25,364.00q 2.75,16.50 4.125,31.625q 9.625,89.375 19.25,133.375q 23.375,5.50 64.625,8.25t 123.75,2.75t 123.75-2.75t 64.625-8.25q 9.625-44.00 19.25-133.375q 1.375-15.125 4.125-31.625l-423.50,0.00 zM 220.00,584.00l0.00,44.00 l 264.00,0.00 l0.00-44.00 l-264.00,0.00 zM 464.75,232.00q0.00,26.125 18.563,44.688t 44.688,18.563t 44.688-18.563t 18.563-44.688t-18.563-44.688t-44.688-18.563t-44.688,18.563t-18.563,44.688z" />
<glyph unicode="&#x6d;" d="M0.00,100.00l 704.00,0.00 l-291.50,176.00l-60.50-55.00l-61.875,55.00zM0.00,130.25l 255.75,177.375l-255.75,229.625l0.00-407.00 zM 20.625,540.00l 331.375-248.875l 331.375,248.875l-662.75,0.00 zM 448.25,307.625l 255.75-177.375l0.00,407.00 z" />
<glyph unicode="&#x6c;" d="M0.00,56.00l 88.00-88.00l 226.875,301.125l 125.125-125.125l0.00-176.00 l 88.00,0.00 l 44.00,132.00l 132.00,44.00l0.00,88.00 l-176.00,0.00 l-125.125,125.125l 301.125,226.875l-88.00,88.00l-376.75-151.25l-119.625,119.625q-24.75,24.75 -56.375,30.25q-7.563,1.375 -14.094,1.375q-21.656,0.00 -35.406-13.75t-13.75-35.406q0.00-6.531 1.375-14.094q 5.50-31.625 30.25-56.375l 119.625-119.625z" />
<glyph unicode="&#x70;" d="M0.00,188.00q0.00-55.00 38.50-93.50t 93.50-38.50l 440.00,0.00 q 55.00,0.00 93.50,38.50t 38.50,93.50l0.00,264.00 q0.00,55.00 -38.50,93.50t-93.50,38.50l-440.00,0.00 q-55.00,0.00 -93.50-38.50t-38.50-93.50l0.00-264.00 zM 264.00,144.00l0.00,352.00 l 220.00-176.00z" />
<glyph unicode="&#x72;" d="M 88.00,3.75q0.00-15.125 9.625-25.438t 23.375-10.313t 24.063,10.313t 10.313,25.438l0.00,302.50 q 46.75,35.75 143.00,60.50q 46.75,12.031 73.906,12.031q 28.531,0.00 34.719-13.406q 9.625-33.00 85.25-51.563q 34.719-8.594 63.594-8.594q 34.031,0.00 60.156,12.031l0.00,279.125 q-75.281-33.00 -124.438-33.344q-64.969,0.00 -84.563,58.094q-2.75,9.625 -15.813,16.50t-33.00,10.313t-40.563,4.813t-47.438,1.375l-45.375,0.00 t-42.625-1.375t-30.938-1.375q-8.25,20.625 -30.25,20.625 q-13.75,0.00 -23.375-10.313t-9.625-25.438l0.00-632.50 zM 155.375,321.375l0.00,309.375 q 12.375-31.625 21.313-68.75q 6.875-28.531 6.875-75.281q0.00-14.438 -0.688-30.594q-2.75-68.75 -27.50-134.75z" />
<glyph unicode="&#x76;" d="M0.00,188.00q0.00-35.75 26.125-61.875t 61.875-26.125l 352.00,0.00 q 35.75,0.00 61.875,26.125t 26.125,61.875l0.00,264.00 q0.00,35.75 -26.125,61.875t-61.875,26.125l-352.00,0.00 q-35.75,0.00 -61.875-26.125t-26.125-61.875l0.00-264.00 zM 572.00,276.00l 132.00-132.00l0.00,352.00 l-132.00-132.00l0.00-88.00 z" />
<glyph unicode="&#x78;" d="M0.00,100.00q0.00-17.875 13.063-30.938t 30.938-13.063l 594.00,0.00 q 27.50,0.00 46.75,19.25t 19.25,46.75l0.00,374.00 l-88.00,0.00 l0.00,88.00 l-616.00,0.00 l0.00-484.00 zM 44.00,100.00l0.00,440.00 l 528.00,0.00 l0.00-440.00 l-528.00,0.00 zM 88.00,144.00l0.00,220.00 l 220.00,0.00 l0.00-220.00 l-220.00,0.00 zM 88.00,408.00l0.00,44.00 l 440.00,0.00 l0.00-44.00 l-440.00,0.00 zM 352.00,144.00l0.00,44.00 l 132.00,0.00 l0.00-44.00 l-132.00,0.00 zM 352.00,232.00l0.00,44.00 l 176.00,0.00 l0.00-44.00 l-176.00,0.00 zM 352.00,320.00l0.00,44.00 l 176.00,0.00 l0.00-44.00 l-176.00,0.00 z " />
<glyph unicode="&#x7a;" d="M0.00,188.00l 123.75,0.00 q 35.75,41.25 97.625,64.625q-28.875,17.875 -67.375,22.00l0.00,9.625 q 22.00,19.25 22.00,57.75q0.00,27.50 -13.063,46.75t-30.938,19.25t-30.938-19.25t-13.063-46.75q0.00-38.50 22.00-57.75l0.00-9.625 q-46.75-5.50 -78.375-29.563t-31.625-57.063zM 132.00,100.00l 440.00,0.00 q0.00,48.125 -50.188,83.875t-125.813,45.375l0.00,20.625 q 44.00,38.50 44.00,114.125q0.00,55.00 -25.438,93.50t-62.563,38.50t-62.563-38.50t-25.438-93.50 q0.00-75.625 44.00-114.125l0.00-20.625 q-75.625-9.625 -125.813-45.375t-50.188-83.875zM 482.625,252.625q 61.875-23.375 97.625-64.625l 123.75,0.00 q0.00,33.00 -31.625,57.063t-78.375,29.563l0.00,9.625 q 22.00,19.25 22.00,57.75q0.00,27.50 -13.063,46.75t-30.938,19.25t-30.938-19.25t-13.063-46.75q0.00-38.50 22.00-57.75l0.00-9.625 q-38.50-4.125 -67.375-22.00z" />
<glyph unicode="&#x38;" d="M 672.00,336.00l-224.00,96.00l 89.536,63.968C 490.88,545.12, 425.12,576.00, 352.00,576.00
	C 228.00,576.00, 124.672,487.84, 101.088,370.816L 41.344,395.552C 75.328,535.744, 201.344,640.00, 352.00,640.00c 94.624,0.00, 179.328-41.344, 237.952-106.624L 672.00,592.00L 672.00,336.00 z
	 M 166.464,144.032C 213.088,94.88, 278.88,64.00, 352.00,64.00c 124.48,0.00, 228.096,88.832, 251.136,206.56l 59.68-25.536C 629.024,104.544, 502.88,0.00, 352.00,0.00
	c-94.624,0.00-179.36,41.344-237.952,106.624L 32.00,48.00l0.00,256.00 l 224.00-96.00L 166.464,144.032z" />
<glyph unicode="&#x31;" d="M 390.606,482.842 c 0.401-1.069 13.225-23.11 28.454-48.893 15.362-25.782 27.652-47.557 27.385-48.358 -0.267-0.802
-9.885-17.50 -21.374-37.137 l-20.973-35.668 -50.496-0.134 -50.496,0.00 -2.271,4.141 c-12.958,23.645 -33.797,43.148 -55.839,52.499 -4.542,1.87 -13.225,4.809 -19.37,6.412 l-11.221,3.072 -103.529,0.00 -103.529,0.00 -0.401-84.427 -0.267-84.56 14.027,0.00 c 13.492,0.00 14.027,0.134 14.561,3.072 5.343,28.988 13.492,45.419 30.992,62.919 37.003,37.003 89.904,46.622 136.258,24.981 34.866-16.431 59.179-46.488 65.19-80.953 l 1.603-9.351 81.488-0.935 c 44.751-0.534 82.022-0.802 82.824-0.534 0.802,0.267 2.137,4.943 3.072,10.42 7.214,45.019
47.557,82.556 98.186,91.373 35.935,6.279 75.743-7.214 103.797-35.40 15.63-15.763 24.58-32.461 29.255-54.904 l 2.271-11.355
8.015,0.134 c 10.286,0.134 16.565,3.74 20.439,11.756 2.538,5.343 2.672,7.748 2.405,31.66 l-0.401,25.916 -15.63,0.401 -15.763,0.401 0.00,43.683 c0.00,49.293 -0.401,51.164 -10.153,58.511 l-4.943,3.874 -86.163,0.668 -86.163,0.668 -28.988,48.759 -28.855,48.759 -17.099,0.401 c-15.362,0.267
-17.099,0.134 -16.298-1.87zM 132.117,270.707 c-27.385-7.614 -49.694-29.923 -56.507-56.507 -2.672-10.286 -2.672-29.523 -0.134-39.809
4.676-18.301 18.969-37.939 34.599-47.29 14.561-8.683 23.778-11.221 40.877-11.355 18.168-0.134 29.79,2.939 43.015,11.488 22.175,14.294 37.137,41.412 37.137,67.194 0.00,34.599 -25.649,67.328 -59.713,76.144 -9.217,2.405 -30.725,2.405 -39.274,0.134z m 32.061-45.152 c 10.82-3.34 21.507-18.435 21.507-30.591 0.00-28.32 -30.591-44.351 -53.568-28.053 -18.969,13.359 -18.168,43.015
1.603,55.171 9.485,5.878 18.836,6.946 30.458,3.473zM 532.074,270.573 c-28.587-7.882 -51.297-31.794 -57.175-60.114 -3.874-18.569 -2.004-32.862 6.679-50.763
9.485-19.771 25.782-34.198 46.354-40.877 8.149-2.672 12.29-3.206 25.114-3.072 13.091,0.00 16.698,0.534 24.313,3.473 26.317,9.885
44.618,29.923 51.297,55.839 2.939,11.756 2.137,33.797 -1.87,44.618 -8.416,22.977 -26.183,40.744 -49.16,49.16 -10.153,3.74 -35.00,4.676 -45.553,1.737z m 34.465-46.354 c 20.706-8.683 25.649-38.072 9.217-54.102 -9.351-9.084 -23.912-12.156 -35.668-7.748
-17.901,6.813 -26.851,29.523 -18.435,46.221 8.683,17.099 26.45,23.378 44.885,15.63z"  />
<glyph unicode="&#x32;" d="M 342.301,667.553c-33.534-8.97-50.232-45.955-34.914-77.141c 16.56-33.534, 61.961-40.572, 88.734-13.80
		C 435.451,615.941, 396.258,682.181, 342.301,667.553zM 194.503,579.648c-1.932-0.827-4.554-3.589-5.935-5.934c-2.622-4.554-41.124-159.941-41.124-166.151
		c0.00-5.934, 2.208-10.626, 6.21-13.248c 5.106-3.312, 52.853-14.628, 57.96-13.661c 5.658,0.966, 10.212,4.277, 11.868,8.831
		c 3.173,7.865, 39.882,160.631, 39.882,165.46c0.00,6.072-2.76,10.489-8.142,13.387
		c-4.554,2.347-49.128,13.11-54.095,13.11C 199.333,581.442, 196.297,580.613, 194.503,579.648zM 329.882,551.082c-16.837-2.484-32.43-15.181-40.986-33.395c-6.486-13.938-122.129-494.037-122.129-506.871
		c0.00-20.562, 17.802-37.951, 38.639-37.951c 14.352,0.00, 30.083,10.212, 35.466,23.048
		c 1.517,3.588, 17.525,67.343, 35.604,141.449c 18.216,74.241, 33.12,134.824, 33.258,134.548
		c 0.138-0.139, 14.627-61.687, 32.291-136.758c 17.526-75.07, 33.12-138.827, 34.501-141.588
		c 5.796-11.453, 21.252-20.70, 34.50-20.70c 20.701,0.00, 38.639,17.528, 38.639,37.951
		c0.00,6.21-11.04,54.095-43.469,187.955c-23.873,98.807-43.47,181.468-43.47,183.539
		c 0.138,2.07, 1.517,9.798, 3.175,16.974l 3.173,13.11l 2.485-11.729c 3.865-17.94, 8.142-24.702, 18.355-28.704
		c 5.244-2.07, 97.703-25.116, 100.738-25.116c 19.044,0.00, 31.877,20.70, 24.011,38.087
		c-4.828,10.625-8.281,12.145-54.094,23.737l-41.814,10.626l-11.868,47.608c-11.592,47.059-14.352,55.062-22.217,64.998
		C 373.765,545.70, 350.028,553.98, 329.882,551.082zM 573.45,492.433c-1.934-1.932-3.728-4.968-4.14-6.623c-0.416-1.657-21.667-115.092-47.196-251.986
		C 481.129,14.402, 475.884-15.542, 477.401-19.131c 1.657-4.002, 7.453-8.004, 11.594-8.004
		c 4.139,0.00, 9.936,4.002, 11.454,7.867c 1.794,4.554, 94.115,498.59, 94.115,503.696c0.00,1.932-1.795,5.105-4.002,7.452
		C 585.18,497.124, 578.417,497.40, 573.45,492.433z" horiz-adv-x="712.310286677909"  />
<glyph unicode="&#x73;" d="M0.00,276.00l 308.00-308.00l 396.00,396.00l0.00,308.00 l-308.00,0.00 zM 508.75,540.00q0.00,26.125 18.563,44.688t 44.688,18.563t 44.688-18.563t 18.563-44.688t-18.563-44.688t-44.688-18.563t-44.688,18.563t-18.563,44.688z" />
<glyph unicode="&#x56;" d="M 487.014,240.25L 704.00,408.00L 440.00,408.00L 352.00,672.00L 264.00,408.00L0.00,408.00L 217.25,240.932L 132.00-32.00L 352.352,136.96L 572.176-32.00 		
			z"  />
<glyph unicode="&#x20;" horiz-adv-x="352" />
<glyph class="hidden" unicode="&#xf000;" d="M0,672L 704 -32L0 -32 z" horiz-adv-x="0" />
</font>
</defs>
</svg>
